<?xml version="1.0" encoding="UTF-8"?>
<svg id="_レイヤー_2" data-name="レイヤー 2" xmlns="http://www.w3.org/2000/svg" xmlns:xlink="http://www.w3.org/1999/xlink" viewBox="0 0 1366 763.96">
  <defs>
    <style>
      .cls-1 {
        fill: #f4d7e5;
      }

      .cls-2 {
        clip-path: url(#clippath);
      }

      .cls-3 {
        fill: none;
      }
    </style>
    <clipPath id="clippath">
      <rect class="cls-3" x="1.63" width="1362.81" height="217.53"/>
    </clipPath>
  </defs>
  <g id="_レイヤー_1-2" data-name="レイヤー 1">
    <g class="cls-2">
      <path class="cls-1" d="M1.85,40.1C1.39,7.49,1.17,4.08,45.01,2.61,199.55-2.56,324.5,89.95,475.61,99.54c99.2,6.3,198.86-24.45,297.21-12.45,117.2,14.29,216.51,87.47,335.1,88.57,58.66,.54,258.91-44.26,258.07,44.64-.47,49.53-.32,341.28-.32,430.06,0,37.48-3.67,76.49,.32,113.59-84.37-6.65-155.24-7.23-236.13-32.46-78.96-24.63-158.41-55.74-243.78-63.03-65-5.55-132.65,3.83-197.02,10.34-71.5,7.23-131.08-1.77-197.41-24.52-63.2-21.67-125.19-48.68-193.6-55.25-78.99-7.59-225.78,33.11-284.93-21.71C4.76,569.58-.11,559.97,0,548.26c.47-49.53,.71-99.04,.71-148.57,0-40.56,1.51-333.56,1.14-359.6Z"/>
    </g>
  </g>
</svg>