<?xml version="1.0" encoding="UTF-8"?>
<svg id="_レイヤー_2" data-name="レイヤー 2" xmlns="http://www.w3.org/2000/svg" xmlns:xlink="http://www.w3.org/1999/xlink" viewBox="0 0 1362.89 208.94">
  <defs>
    <style>
      .cls-1 {
        fill: #f4d7e5;
      }

      .cls-2 {
        clip-path: url(#clippath);
      }

      .cls-3 {
        fill: none;
      }
    </style>
    <clipPath id="clippath">
      <rect class="cls-3" width="1362.89" height="208.94"/>
    </clipPath>
  </defs>
  <g id="_レイヤー_1-2" data-name="レイヤー 1">
    <g class="cls-2">
      <path class="cls-1" d="M1.41-516.12c-.46-32.61-.69-36.02,43.16-37.49,154.53-5.17,279.49,87.34,430.6,96.93,99.2,6.3,198.86-24.45,297.21-12.45,117.2,14.29,216.51,87.47,335.1,88.57,58.66,.54,258.91-44.26,258.07,44.64-.47,49.53-.32,341.28-.32,430.06,0,37.48-3.67,76.49,.32,113.59-84.37-6.65-155.24-7.23-236.13-32.46-78.96-24.63-158.41-55.74-243.78-63.03-65-5.55-132.65,3.83-197.02,10.34-71.5,7.23-131.08-1.77-197.41-24.52-63.2-21.67-125.19-48.68-193.6-55.25C218.62,35.24,71.82,75.93,12.68,21.11,4.32,13.37-.55,3.75-.44-7.96,.03-57.49,.27-107,.27-156.52c0-40.56,1.51-333.56,1.14-359.6Z"/>
    </g>
  </g>
</svg>