<?xml version="1.0" encoding="UTF-8"?>
<svg id="_レイヤー_2" data-name="レイヤー 2" xmlns="http://www.w3.org/2000/svg" viewBox="0 0 203 64.25">
  <defs>
    <style>
      .cls-1 {
        fill: #2d2d2d;
      }
    </style>
  </defs>
  <g id="_レイヤー_1-2" data-name="レイヤー 1">
    <g>
      <g>
        <path class="cls-1" d="M16.61,31.73c-2.16,2.9-4.3,5.08-6.42,6.53s-4.05,2.18-5.82,2.18c-1.19,0-2.22-.5-3.08-1.5-.86-1-1.3-2.29-1.3-3.87,0-4.06,1.82-8.43,5.45-13.11,3.63-4.68,7.24-7.03,10.82-7.03,1.3,0,2.26,.74,2.9,2.22,.2,.49,.52,.74,.95,.74,1.24,0,1.85,.48,1.85,1.44,0,.48-.08,1.13-.23,1.97-.83,4.55-1.25,7.76-1.25,9.63,0,3.73,.71,5.97,2.13,6.71,.68,.37,1.02,.83,1.02,1.37,0,.48-.33,.96-1,1.45-.66,.49-1.31,.73-1.92,.73-1.19,0-2.17-.82-2.94-2.45-.77-1.64-1.16-3.97-1.16-6.99Zm-1.41-13.03c-2.04,0-4.41,1.91-7.11,5.73-2.7,3.82-4.06,6.99-4.06,9.5,0,1.78,.59,2.66,1.76,2.66,1.7,0,4.06-1.71,7.07-5.14,3.01-3.43,4.52-6.57,4.52-9.44,0-2.21-.73-3.31-2.18-3.31Z"/>
        <path class="cls-1" d="M33.28,27.54c1.98-3.6,4.34-6.51,7.09-8.74,2.75-2.23,5.23-3.34,7.44-3.34,1.22,0,2.25,.56,3.1,1.69,.85,1.13,1.27,2.5,1.27,4.12,0,4.8-1.81,9.3-5.43,13.51-3.62,4.2-7.45,6.31-11.48,6.31-1.1,0-2.1-.3-3.02-.89-.92-.59-1.43-1.34-1.54-2.23-.06-.73-.27-1.26-.63-1.62-.66-.66-1-1.37-1-2.13,0-1.4,.39-4.41,1.16-9l2.39-13.84c.82-4.64,1.42-7.51,1.8-8.61,.38-1.1,.8-1.83,1.26-2.2s1.03-.56,1.71-.56c1.08,0,1.62,.93,1.62,2.8s-.59,4.26-1.78,7.45c-1.14,3.07-2.46,8.83-3.96,17.29Zm-.56,7.71c.8,1.5,1.78,2.25,2.92,2.25,1.76,0,3.62-.73,5.58-2.19,1.96-1.46,3.66-3.51,5.09-6.16,1.43-2.65,2.14-4.88,2.14-6.7,0-.82-.15-1.52-.44-2.11-.29-.59-.66-.88-1.11-.88-2.15,0-4.77,1.76-7.87,5.27-3.1,3.51-5.2,7.02-6.31,10.52Z"/>
        <path class="cls-1" d="M76.49,31.76c0,1.57-1.39,3.47-4.18,5.69-2.79,2.22-5.66,3.33-8.63,3.33-2.49,0-4.41-.73-5.76-2.2-1.35-1.47-2.03-3.51-2.03-6.13,0-4.41,1.49-8.61,4.47-12.59,2.98-3.98,6.24-5.97,9.78-5.97,1.16,0,2.1,.38,2.84,1.13,.73,.76,1.1,1.67,1.1,2.73,0,2.38-1.17,4.65-3.5,6.83-2.33,2.18-5.45,4.31-9.36,6.41-.8,.42-1.2,.96-1.2,1.62,0,1.28,.37,2.31,1.11,3.08s1.84,1.16,3.29,1.16c3.32,0,6.71-1.84,10.17-5.51,.51-.51,.9-.76,1.16-.76,.49,0,.74,.39,.74,1.18Zm-16.1-3.61c6.55-3.89,9.82-7.01,9.82-9.37,0-.93-.42-1.39-1.25-1.39-1.42,0-3.02,1.04-4.81,3.12-1.78,2.08-3.04,4.63-3.77,7.64Z"/>
        <path class="cls-1" d="M83.72,33.22h.51c.28,0,.61,.14,1,.4,.39,.27,.58,.64,.58,1.1,0,.93-.16,1.6-.49,2.04-.32,.43-.85,.91-1.56,1.43-.72,.53-1.22,.79-1.52,.79-.65,0-1.13-.15-1.44-.44-.31-.29-.46-1.1-.46-2.41,0-1.22,.07-1.94,.21-2.18,.14-.23,.47-.41,1.01-.54s1.25-.2,2.17-.2Z"/>
        <path class="cls-1" d="M103.95,34.3c0-1-1.24-2.14-3.71-3.43-3.14-1.6-5.26-2.89-6.36-3.85-1.1-.96-1.66-2.04-1.66-3.23,0-3.07,1.54-5.62,4.62-7.64,3.08-2.02,5.6-3.03,7.54-3.03,1.25,0,2.16,.22,2.72,.65,.56,.43,.85,1.18,.85,2.25,0,.48-.2,.89-.61,1.23-.41,.34-.73,.51-.96,.51-.17,0-.5-.12-1-.35-.49-.22-.82-.32-.97-.32-.77,0-2.34,.56-4.7,1.69-2.36,1.13-3.55,2.4-3.55,3.82,0,.86,.42,1.65,1.25,2.35,.83,.7,2.33,1.56,4.5,2.58,1.75,.83,3.14,1.72,4.18,2.67,1.04,.95,1.56,2.06,1.56,3.34,0,2.36-1.63,4.21-4.89,5.54-3.26,1.33-6.37,2-9.34,2-2.5,0-3.75-.85-3.75-2.55,0-.59,.28-1.02,.85-1.3,.56-.28,1.13-.42,1.7-.42,.23,0,.67,.08,1.32,.23,.63,.15,1.05,.23,1.25,.23,1.71,0,3.55-.29,5.51-.86,1.96-.57,3.17-1.28,3.64-2.13Z"/>
        <path class="cls-1" d="M129.94,31.18c-2.16,2.9-4.3,5.08-6.42,6.53-2.12,1.45-4.05,2.18-5.82,2.18-1.19,0-2.22-.5-3.08-1.5-.86-1-1.3-2.29-1.3-3.87,0-4.06,1.82-8.43,5.45-13.11,3.63-4.68,7.24-7.03,10.82-7.03,1.3,0,2.26,.74,2.9,2.22,.2,.49,.52,.74,.95,.74,1.24,0,1.85,.48,1.85,1.44,0,.48-.08,1.13-.23,1.97-.83,4.55-1.25,7.76-1.25,9.63,0,3.73,.71,5.97,2.13,6.71,.68,.37,1.02,.83,1.02,1.37,0,.48-.33,.96-1,1.45-.66,.49-1.31,.73-1.92,.73-1.19,0-2.17-.82-2.94-2.45-.77-1.64-1.16-3.97-1.16-6.99Zm-1.41-13.03c-2.04,0-4.41,1.91-7.11,5.73-2.7,3.82-4.06,6.99-4.06,9.5,0,1.78,.59,2.66,1.76,2.66,1.7,0,4.06-1.71,7.07-5.14,3.01-3.43,4.52-6.57,4.52-9.44,0-2.21-.73-3.31-2.18-3.31Z"/>
        <path class="cls-1" d="M147.04,40.76c-2.12,0-3.86-.8-5.24-2.41-1.38-1.6-2.06-3.59-2.06-5.95,0-3.98,1.34-7.9,4.02-11.77,2.68-3.87,5.89-5.8,9.63-5.8,2.47,0,4.48,.95,6.01,2.85,1.54,1.9,2.31,4.16,2.31,6.78,0,4.01-1.59,7.73-4.76,11.16-3.17,3.43-6.48,5.14-9.91,5.14Zm-3.22-8.96c0,1.56,.33,2.83,.98,3.82,.66,.99,1.53,1.48,2.61,1.48,2.3,0,4.61-1.26,6.93-3.78,2.32-2.52,3.48-5.33,3.48-8.41,0-1.9-.44-3.44-1.33-4.62-.89-1.18-2.08-1.77-3.58-1.77-2.49,0-4.62,1.52-6.41,4.57-1.78,3.05-2.68,5.95-2.68,8.71Z"/>
        <path class="cls-1" d="M170.84,30.41c.15-.28,.34-.66,.56-1.16,1.05-2.41,2.02-4.29,2.9-5.66,.88-1.37,1.85-2.67,2.91-3.92,1.06-1.25,2.02-2.2,2.9-2.85,.87-.65,1.66-1.1,2.37-1.35,.71-.26,1.4-.38,2.06-.38,1.34,0,2.44,.4,3.29,1.22,.85,.81,1.27,1.76,1.27,2.84,0,.48-.15,.91-.45,1.3s-.76,.58-1.38,.58c-.65,0-1.24-.29-1.78-.86-.56-.57-1.14-.86-1.74-.86-1.61,0-3.83,1.94-6.67,5.83-2.84,3.89-4.57,8.17-5.19,12.85-.16,1.2-.45,2-.88,2.38-.43,.39-1.04,.58-1.83,.58s-1.31-.56-1.65-1.69c-.34-1.13-.51-3.02-.51-5.69,0-.73,.04-2.32,.12-4.79,.09-2.92,.28-5.27,.56-7.06,.05-.29,.12-.98,.23-2.06,.11-1.19,.24-2.01,.41-2.48,.16-.46,.49-.89,1-1.3,.5-.4,1.05-.6,1.63-.6s1,.18,1.29,.54c.29,.36,.43,.75,.43,1.17,0,.6-.15,1.45-.46,2.55-.36,1.22-.56,2.06-.63,2.52-.05,.52-.13,1.07-.26,1.64-.15,.66-.31,2.41-.46,5.23l-.02,.86v.62Z"/>
        <path class="cls-1" d="M195.7,34.46c0,1.17,.16,2.49,.49,3.96,.06,.28,.09,.51,.09,.69,0,.28-.25,.64-.76,1.08s-1.05,.66-1.62,.66c-1.5,0-2.25-1.37-2.25-4.12s.59-7.33,1.76-13.47c.4-2.14,.6-3.46,.6-3.96,0-.97,.18-1.8,.53-2.49,.36-.69,.86-1.03,1.51-1.03,.79,0,1.41,.19,1.87,.57,.46,.38,.68,.8,.68,1.26s-.11,1.07-.32,1.83c-1.16,4.07-1.88,6.99-2.15,8.75-.28,1.76-.42,3.85-.42,6.27Zm3.03-25.86c-.32,0-.57-.35-.74-1.04-.06-.22-.15-.46-.26-.72-.42-1-.63-1.87-.63-2.62,0-.62,.37-1.25,1.1-1.89,.73-.64,1.55-.96,2.44-.96,.45,0,.95,.17,1.51,.52,.56,.35,.83,.68,.83,1.01,0,.51-.19,1.37-.57,2.59-.38,1.22-.98,2.04-1.81,2.46-.83,.42-1.46,.64-1.89,.64Z"/>
      </g>
      <g>
        <path class="cls-1" d="M58.11,63.87v-15.1h5.02c1.94,0,3.41,.28,4.41,.84,1,.56,1.78,1.38,2.35,2.46,.57,1.08,.85,2.38,.85,3.89,0,1.44-.26,2.75-.78,3.95-.52,1.2-1.31,2.16-2.37,2.88-1.06,.72-2.54,1.08-4.43,1.08h-5.05Zm2.14-1.6h2.74c1.43,0,2.49-.23,3.2-.68,.71-.45,1.26-1.17,1.67-2.15s.6-2.07,.6-3.27c0-1.06-.17-2.03-.52-2.9-.35-.87-.91-1.57-1.68-2.1-.77-.53-2.19-.79-4.25-.79h-1.76v11.89Z"/>
        <path class="cls-1" d="M73.77,63.87v-15.1h8.47v1.6h-6.32v4.85h5.3v1.58h-5.3v5.47h6.76v1.6h-8.9Z"/>
        <path class="cls-1" d="M85.02,63.58v-2.12c1.22,.56,2.11,.89,2.67,1.01s1.08,.17,1.56,.17c.87,0,1.56-.24,2.06-.71,.5-.47,.76-1.04,.76-1.7,0-.5-.13-.96-.39-1.38-.27-.41-.94-.92-2-1.52l-1.05-.6c-1.39-.79-2.33-1.51-2.81-2.16-.48-.65-.72-1.38-.72-2.17,0-.71,.19-1.38,.57-2.01,.38-.63,.89-1.12,1.53-1.47,.64-.35,1.45-.53,2.42-.53,1.17,0,2.4,.19,3.7,.58v1.96c-1.13-.44-1.91-.71-2.33-.8-.42-.09-.84-.14-1.26-.14-.88,0-1.53,.23-1.95,.68-.42,.46-.63,.92-.63,1.4,0,.33,.1,.66,.3,.99,.2,.34,.47,.63,.8,.87,.34,.24,.8,.53,1.39,.86l1.09,.61c1.41,.8,2.35,1.52,2.82,2.18,.47,.67,.71,1.43,.71,2.3,0,1.18-.45,2.2-1.35,3.06-.9,.86-2.22,1.3-3.97,1.3-.54,0-1.06-.04-1.57-.11s-1.29-.26-2.35-.56Z"/>
        <path class="cls-1" d="M98.03,63.87v-15.1h2.14v15.1h-2.14Z"/>
        <path class="cls-1" d="M115.84,63.46c-1.32,.38-2.29,.61-2.89,.68-.61,.07-1.24,.11-1.89,.11-1.81,0-3.24-.33-4.27-.98-1.04-.65-1.83-1.59-2.37-2.83-.54-1.23-.81-2.6-.81-4.12,0-2.32,.61-4.22,1.84-5.7,1.23-1.48,3.1-2.22,5.61-2.22,1.52,0,3.11,.23,4.76,.68v1.98c-1.53-.52-2.58-.83-3.16-.92s-1.12-.14-1.63-.14c-1.82,0-3.13,.62-3.94,1.85-.81,1.23-1.21,2.73-1.21,4.48,0,1.09,.17,2.1,.52,3.05,.34,.94,.92,1.72,1.73,2.34,.81,.62,1.9,.93,3.26,.93,.35,0,.67-.02,.98-.06,.31-.04,.75-.14,1.34-.32v-4.92h2.14v6.11Z"/>
        <path class="cls-1" d="M119.6,63.87v-15.1h2.11l7.58,11.65v-11.65h1.85v15.1h-2.1l-7.59-11.65v11.65h-1.85Z"/>
        <path class="cls-1" d="M135.14,63.87v-2.52h2.52v2.52h-2.52Z"/>
        <path class="cls-1" d="M141.76,63.87v-2.52h2.52v2.52h-2.52Z"/>
      </g>
    </g>
  </g>
</svg>